HIERARCHY
ROOT Hips
{
 OFFSET 0.000000 0.000000 0.000000
 CHANNELS 6 Xposition Yposition Zposition Yrotation Xrotation Zrotation
 JOINT Chest
 {
  OFFSET 0.000000 10.383400 0.001500
  CHANNELS 3 Yrotation Xrotation Zrotation
  JOINT Chest2
  {
   OFFSET 0.000000 10.418200 -0.003100
   CHANNELS 3 Yrotation Xrotation Zrotation
   JOINT Chest3
   {
    OFFSET 0.000000 10.375100 0.000000
    CHANNELS 3 Yrotation Xrotation Zrotation
    JOINT Chest4
    {
     OFFSET 0.000000 10.364600 0.000000
     CHANNELS 3 Yrotation Xrotation Zrotation
     JOINT Neck
     {
      OFFSET 0.000000 15.642200 0.000000
      CHANNELS 3 Yrotation Xrotation Zrotation
      JOINT Head
      {
       OFFSET 0.000000 9.697300 -0.006500
       CHANNELS 3 Yrotation Xrotation Zrotation
       End Site
       {
        OFFSET 0.000000 18.492200 -0.003400
       }
      }
     }
     JOINT RightCollar
     {
      OFFSET -3.166800 10.349300 0.000000
      CHANNELS 3 Yrotation Xrotation Zrotation
      JOINT RightShoulder
      {
       OFFSET -14.729700 0.000000 0.000000
       CHANNELS 3 Yrotation Xrotation Zrotation
       JOINT RightElbow
       {
        OFFSET 0.000000 -32.224300 0.000000
        CHANNELS 3 Yrotation Xrotation Zrotation
        JOINT RightWrist
        {
         OFFSET 0.000000 -26.084100 0.000000
         CHANNELS 3 Yrotation Xrotation Zrotation
         End Site
         {
          OFFSET 0.000000 -19.319400 0.000000
         }
        }
       }
      }
     }
     JOINT LeftCollar
     {
      OFFSET 3.166800 10.349300 0.000000
      CHANNELS 3 Yrotation Xrotation Zrotation
      JOINT LeftShoulder
      {
       OFFSET 14.729700 0.000000 0.000000
       CHANNELS 3 Yrotation Xrotation Zrotation
       JOINT LeftElbow
       {
        OFFSET 0.000000 -32.224300 0.000000
        CHANNELS 3 Yrotation Xrotation Zrotation
        JOINT LeftWrist
        {
         OFFSET 0.000000 -26.084100 0.000000
         CHANNELS 3 Yrotation Xrotation Zrotation
         End Site
         {
          OFFSET 0.000000 -19.319400 0.000000
         }
        }
       }
      }
     }
    }
   }
  }
 }
 JOINT RightHip
 {
  OFFSET -8.428900 -0.007500 -0.000800
  CHANNELS 3 Yrotation Xrotation Zrotation
  JOINT RightKnee
  {
   OFFSET 0.000000 -43.834600 0.000700
   CHANNELS 3 Yrotation Xrotation Zrotation
   JOINT RightAnkle
   {
    OFFSET 0.000000 -42.757000 0.001200
    CHANNELS 3 Yrotation Xrotation Zrotation
    JOINT RightToe
    {
     OFFSET 0.000000 -6.946900 15.649300
     CHANNELS 3 Yrotation Xrotation Zrotation
     End Site
     {
      OFFSET 0.000000 -1.580800 6.825800
     }
    }
   }
  }
 }
 JOINT LeftHip
 {
  OFFSET 8.428900 -0.007500 -0.000800
  CHANNELS 3 Yrotation Xrotation Zrotation
  JOINT LeftKnee
  {
   OFFSET 0.000000 -43.834600 0.000700
   CHANNELS 3 Yrotation Xrotation Zrotation
   JOINT LeftAnkle
   {
    OFFSET 0.000000 -42.757000 0.001200
    CHANNELS 3 Yrotation Xrotation Zrotation
    JOINT LeftToe
    {
     OFFSET 0.000000 -6.946900 15.649300
     CHANNELS 3 Yrotation Xrotation Zrotation
     End Site
     {
      OFFSET 0.000000 -1.580800 6.825800
     }
    }
   }
  }
 }
}
MOTION
Frames: 16
Frame Time: 0.008333
0.000000 93.354300 0.000000 0.000000 -5.767877 0.000000 0.000000 11.653817 0.000000 0.000000 -5.885947 0.000000 0.000000 -0.000000 0.000000 0.000000 -0.000000 0.000000 0.000000 12.528835 0.000000 0.000000 0.711642 0.000000 0.000000 -0.000000 0.000000 0.000000 0.000000 -90.000000 0.000000 -2.309062 0.000000 0.000000 2.309062 0.000000 0.000000 -0.000000 0.000000 0.000000 -0.000000 90.000000 0.000000 -2.309062 0.000000 0.000000 2.309062 0.000000 0.000000 8.520406 0.000000 0.000000 1.905762 0.000000 -0.000000 -4.658285 0.000000 0.000000 -0.000000 0.000000 0.000000 8.520406 0.000000 0.000000 1.905762 0.000000 -0.000000 -4.658285 0.000000 0.000000 -0.000000 0.000000
23.433364 126.911299 -50.024721 -16.582517 -27.640626 -1.002288 -1.047873 15.329310 1.739048 -0.118174 1.445107 0.175258 -0.216861 2.419978 0.298523 -0.935035 13.662278 1.555839 2.733602 13.320362 -1.378899 5.706122 -10.914872 -3.692314 -1.179347 -5.993806 -2.223634 13.300447 -12.688375 -13.091542 27.209060 -42.830733 3.911992 6.259055 6.406318 -22.425485 -0.785965 -6.310957 -3.671675 -6.721138 -4.709633 6.570182 -37.250910 -52.781251 16.936463 -27.851814 14.284320 17.833432 -3.292074 -42.470733 0.414600 -25.218494 74.168054 -27.744731 1.302093 -3.669677 6.401815 0.000073 -0.009327 0.000032 -3.182979 -35.425949 -6.189607 1.745335 69.263387 4.347685 -11.342665 -5.205271 -3.830274 0.000458 -0.000384 0.000203
23.433914 126.911269 -50.024533 -16.582861 -27.639541 -1.003107 -1.079044 15.319640 1.737730 -0.105753 1.447355 0.174706 -0.210287 2.422995 0.294816 -1.000171 13.636496 1.566971 2.739125 13.363454 -1.388044 5.757440 -10.901221 -3.724895 -1.114340 -5.993295 -2.263425 13.328490 -12.681409 -13.076679 27.223064 -42.805520 3.902064 6.296546 6.470581 -22.391049 -0.760030 -6.300971 -3.699853 -6.711258 -4.675572 6.571334 -37.267232 -52.709640 16.929398 -27.733242 14.285680 18.071401 -3.288742 -42.469065 0.414332 -25.206674 74.165905 -27.732092 1.301025 -3.666630 6.402706 -0.000540 -0.008408 -0.000240 -3.178200 -35.428013 -6.194781 1.755806 69.264987 4.361283 -11.347691 -5.206428 -3.830127 0.000347 -0.000540 0.000154
23.433170 126.911231 -50.024751 -16.575085 -27.637637 -1.016291 -1.088167 15.317084 1.746720 -0.121532 1.442812 0.175943 -0.201789 2.424789 0.294002 -1.035404 13.622997 1.567219 2.763781 13.385026 -1.395771 5.729843 -10.821384 -3.714020 -1.087119 -6.013289 -2.279282 13.439063 -12.748766 -13.073733 27.190441 -42.688634 3.926912 6.300488 6.519415 -22.368584 -0.760612 -6.300882 -3.709080 -6.713266 -4.640659 6.569852 -37.265852 -52.680794 16.953143 -27.672759 14.319696 18.272054 -3.294568 -42.463628 0.422925 -25.187629 74.159846 -27.706449 1.295573 -3.663729 6.402869 -0.000836 -0.006748 -0.000371 -3.188517 -35.431881 -6.185888 1.759704 69.269195 4.366334 -11.354040 -5.209755 -3.830037 -0.000115 -0.000024 -0.000051
23.433489 126.911146 -50.024623 -16.573298 -27.635227 -1.021557 -1.109580 15.304874 1.745506 -0.123800 1.441624 0.175947 -0.205693 2.423007 0.294045 -1.034068 13.627574 1.566203 2.767183 13.396822 -1.397843 5.718919 -10.773891 -3.708862 -1.094170 -6.057335 -2.289772 13.509090 -12.756599 -13.059483 27.213965 -42.630628 3.928969 6.290402 6.559735 -22.358783 -0.757425 -6.299776 -3.713739 -6.749609 -4.612247 6.566663 -37.270400 -52.646183 16.992912 -27.648523 14.352888 18.459146 -3.296427 -42.462916 0.428254 -25.178292 74.157126 -27.694737 1.292179 -3.659920 6.404124 -0.000309 -0.007280 -0.000137 -3.192202 -35.436145 -6.179812 1.760639 69.272738 4.364459 -11.364745 -5.212580 -3.826897 -0.000755 -0.000101 -0.000335
23.434063 126.910993 -50.024490 -16.569920 -27.631705 -1.027055 -1.152746 15.290692 1.739037 -0.110324 1.446455 0.176191 -0.209088 2.420325 0.294342 -1.030036 13.628837 1.564898 2.751282 13.411746 -1.394259 5.717097 -10.718803 -3.708514 -1.080361 -6.065819 -2.298063 13.545478 -12.783898 -13.058919 27.296682 -42.583169 3.905219 6.215851 6.566092 -22.378090 -0.753492 -6.299559 -3.717828 -6.759584 -4.594154 6.562809 -37.385585 -52.574964 17.069578 -27.586723 14.385854 18.661107 -3.294314 -42.462378 0.429489 -25.180763 74.152731 -27.691094 1.292679 -3.658032 6.405558 0.000433 -0.007463 0.000192 -3.192379 -35.440962 -6.176653 1.757082 69.275652 4.361881 -11.372047 -5.213931 -3.823528 -0.000673 0.000013 -0.000299
23.434501 126.910859 -50.024346 -16.565531 -27.628093 -1.034308 -1.160680 15.285294 1.743055 -0.150033 1.429725 0.175547 -0.216354 2.414432 0.294226 -1.072735 13.611911 1.562830 2.796579 13.457736 -1.406484 5.721320 -10.674401 -3.705758 -1.011454 -6.052603 -2.321342 13.576130 -12.769691 -13.052402 27.362953 -42.563402 3.880523 6.245644 6.634176 -22.357999 -0.696324 -6.277467 -3.737720 -6.756066 -4.564406 6.558101 -37.685813 -52.467298 17.258036 -27.405811 14.425458 18.887671 -3.295286 -42.461647 0.436044 -25.176079 74.150338 -27.683677 1.287269 -3.656523 6.407067 0.001766 -0.007485 0.000784 -3.191405 -35.444818 -6.171505 1.743490 69.277208 4.354837 -11.388869 -5.215733 -3.824518 -0.001003 0.000400 -0.000445
23.434505 126.910640 -50.024567 -16.562839 -27.623208 -1.043884 -1.181425 15.273347 1.747313 -0.141543 1.434063 0.173524 -0.230862 2.408985 0.292710 -1.090978 13.604410 1.562792 2.797769 13.477180 -1.402646 5.721497 -10.633383 -3.702725 -1.015275 -6.089335 -2.325426 13.653143 -12.779712 -13.054835 27.365912 -42.501334 3.907190 6.263802 6.665047 -22.353718 -0.697114 -6.277584 -3.740443 -6.864799 -4.509014 6.546907 -37.704739 -52.427685 17.381496 -27.363060 14.451740 19.051657 -3.281126 -42.458050 0.437927 -25.181463 74.140420 -27.677976 1.282680 -3.655216 6.411330 0.000990 -0.005040 0.000439 -3.195939 -35.450665 -6.165629 1.772672 69.279546 4.386718 -11.386045 -5.213347 -3.831329 0.000966 0.001342 0.000429
23.434999 126.910453 -50.024676 -16.562056 -27.618842 -1.049699 -1.202186 15.266664 1.741985 -0.132016 1.434749 0.176357 -0.244924 2.402793 0.291829 -1.086602 13.605442 1.563518 2.779031 13.489979 -1.395816 5.715283 -10.600007 -3.694644 -1.024896 -6.113773 -2.324965 13.719720 -12.864088 -13.075094 27.326087 -42.398039 3.988745 6.273571 6.681732 -22.350107 -0.716970 -6.282922 -3.741478 -6.905131 -4.478789 6.545774 -37.726371 -52.403447 17.451757 -27.354471 14.470040 19.189538 -3.281026 -42.460409 0.443390 -25.186815 74.138667 -27.679680 1.281633 -3.653110 6.409124 0.001046 -0.006354 0.000464 -3.202999 -35.455465 -6.155233 1.793056 69.282048 4.401362 -11.391660 -5.214816 -3.829894 0.001133 0.001788 0.000503
23.435610 126.910427 -50.024605 -16.557797 -27.616644 -1.055803 -1.245188 15.255115 1.729300 -0.126519 1.435368 0.178102 -0.235230 2.404051 0.292007 -1.083765 13.606643 1.564196 2.757918 13.500310 -1.389419 5.705439 -10.567266 -3.682159 -1.026737 -6.126783 -2.327936 13.750997 -12.893751 -13.078866 27.310838 -42.356296 4.025442 6.287717 6.695567 -22.344856 -0.737568 -6.289332 -3.743772 -6.941493 -4.449529 6.546258 -37.807239 -52.359485 17.546835 -27.303880 14.486847 19.327940 -3.283759 -42.461250 0.447689 -25.194208 74.139422 -27.683185 1.277142 -3.652708 6.405657 0.002010 -0.007748 0.000892 -3.214469 -35.457912 -6.144738 1.806532 69.285336 4.406295 -11.392224 -5.216992 -3.826684 0.000857 0.002173 0.000380
23.436139 126.910536 -50.024513 -16.553137 -27.616606 -1.061828 -1.264113 15.249055 1.725746 -0.121694 1.438497 0.179661 -0.235912 2.403228 0.291488 -1.148143 13.585229 1.554595 2.784002 13.529299 -1.385745 5.725139 -10.550838 -3.685415 -0.973266 -6.117609 -2.335612 13.769611 -12.919349 -13.080074 27.322123 -42.320727 4.043121 6.276389 6.696244 -22.341756 -0.699554 -6.277528 -3.749743 -6.978996 -4.422677 6.544253 -37.976416 -52.313995 17.684130 -27.198557 14.528435 19.457483 -3.280290 -42.458254 0.449576 -25.213296 74.133853 -27.699999 1.276950 -3.651054 6.410480 0.000986 -0.008591 0.000438 -3.223648 -35.456800 -6.135130 1.792663 69.288164 4.386930 -11.386833 -5.222112 -3.826001 -0.000410 0.001858 -0.000182
23.436626 126.910750 -50.024448 -16.548905 -27.618639 -1.067095 -1.279890 15.243280 1.724510 -0.126141 1.440484 0.175960 -0.228834 2.405502 0.293634 -1.147155 13.586077 1.555097 2.750642 13.535331 -1.377211 5.738750 -10.536166 -3.686976 -0.980701 -6.129566 -2.337192 13.777317 -12.942241 -13.078967 27.348916 -42.292532 4.056978 6.271417 6.707731 -22.337764 -0.724801 -6.288252 -3.754597 -7.011555 -4.401327 6.544905 -38.037235 -52.288055 17.759068 -27.161206 14.553978 19.540477 -3.277032 -42.454638 0.450072 -25.224511 74.131849 -27.706208 1.273378 -3.649959 6.410552 0.002415 -0.009502 0.001072 -3.240681 -35.454319 -6.119415 1.776774 69.288831 4.359539 -11.387450 -5.222909 -3.823683 -0.000236 0.001373 -0.000105
23.437518 126.910996 -50.024370 -16.544087 -27.622092 -1.069527 -1.289891 15.242574 1.723249 -0.144442 1.425607 0.175110 -0.233369 2.403215 0.293466 -1.149704 13.591935 1.552080 2.738517 13.552208 -1.371130 5.646372 -10.487993 -3.633701 -0.965603 -6.125901 -2.344221 13.781202 -12.961859 -13.074665 27.358487 -42.268021 4.073535 6.282794 6.714088 -22.339488 -0.725563 -6.284460 -3.766997 -7.035619 -4.384665 6.547751 -38.048009 -52.272296 17.795705 -27.147268 14.568945 19.591362 -3.257328 -42.450927 0.436669 -25.260334 74.132737 -27.729852 1.275230 -3.652259 6.414714 0.002613 -0.009193 0.001160 -3.257407 -35.450201 -6.109669 1.768995 69.288230 4.339962 -11.380432 -5.222234 -3.823007 0.000417 0.000710 0.000185
23.438603 126.910974 -50.024905 -16.543451 -27.623382 -1.068855 -1.295982 15.240396 1.721431 -0.147870 1.421409 0.171856 -0.235093 2.402400 0.293494 -1.164542 13.587375 1.554855 2.675618 13.568425 -1.352406 5.619579 -10.458080 -3.616923 -0.954883 -6.121982 -2.354673 13.786462 -12.973974 -13.067321 27.369486 -42.251594 4.084129 6.287422 6.721811 -22.344429 -0.728651 -6.283418 -3.780321 -7.045797 -4.372135 6.552495 -38.032734 -52.265586 17.799394 -27.134863 14.582912 19.621687 -3.251554 -42.450136 0.432616 -25.261737 74.133242 -27.730632 1.271198 -3.652371 6.413403 0.002158 -0.009328 0.000958 -3.274199 -35.448059 -6.094414 1.739933 69.284254 4.299586 -11.395555 -5.217000 -3.823201 -0.000087 0.001765 -0.000039
23.438775 126.911084 -50.025537 -16.536746 -27.626917 -1.074656 -1.308012 15.236297 1.718687 -0.145049 1.425779 0.173425 -0.239857 2.398328 0.291637 -1.175876 13.583019 1.555514 2.661178 13.583326 -1.345613 5.544194 -10.438222 -3.577013 -0.944303 -6.114765 -2.361277 13.791717 -12.976400 -13.060633 27.379812 -42.247910 4.078466 6.281900 6.723584 -22.341275 -0.726378 -6.278877 -3.795553 -7.043821 -4.364383 6.565567 -37.993259 -52.266027 17.767374 -27.121919 14.595091 19.639699 -3.255255 -42.446455 0.434483 -25.253778 74.133227 -27.727586 1.269254 -3.651039 6.419548 -0.000976 -0.010685 -0.000433 -3.284349 -35.442207 -6.089193 1.710784 69.281814 4.270061 -11.380630 -5.216086 -3.822831 0.000123 0.001874 0.000054
23.437549 126.911597 -50.025871 -16.537380 -27.635612 -1.082493 -1.311947 15.239481 1.720316 -0.142051 1.428639 0.175870 -0.243107 2.393590 0.290973 -1.193597 13.573035 1.550336 2.674402 13.602599 -1.340138 5.432716 -10.420645 -3.520897 -0.922994 -6.097726 -2.361578 13.779743 -12.991906 -13.052537 27.382578 -42.234985 4.085680 6.291587 6.722484 -22.333993 -0.717056 -6.266155 -3.802850 -7.040274 -4.360534 6.573968 -37.958410 -52.263799 17.742566 -27.083187 14.605193 19.640273 -3.256450 -42.437929 0.444584 -25.260751 74.133345 -27.732530 1.264403 -3.650099 6.417526 0.000501 -0.011545 0.000222 -3.288442 -35.431085 -6.078553 1.692509 69.281438 4.252501 -11.370468 -5.215906 -3.822051 0.000063 0.001701 0.000028
